<svg version="1.1" id="Layer_1" xmlns="http://www.w3.org/2000/svg" xmlns:xlink="http://www.w3.org/1999/xlink" x="0px" y="0px"
	 width="100%" viewBox="0 0 1008 1024" enable-background="new 0 0 1008 1024" xml:space="preserve">
<path fill="#000000" opacity="1.000000" stroke="none" 
	d="
M175.630951,658.999878 
	C175.609116,585.839661 175.833923,513.178101 175.439682,440.519928 
	C175.290512,413.027496 174.876129,385.528290 175.201782,358.042847 
	C175.914536,297.885742 175.410614,237.729324 175.670715,177.573441 
	C175.698700,171.099533 175.700302,171.062912 182.482193,171.061264 
	C247.135773,171.045517 311.789368,171.016037 376.442932,171.018372 
	C533.428955,171.024017 690.414917,171.044540 847.400940,171.059448 
	C848.734131,171.059570 850.067688,171.048599 851.400513,171.070938 
	C857.445679,171.172226 857.984375,171.645142 857.993713,177.649628 
	C858.035339,204.480453 858.048218,231.311340 858.047852,258.142212 
	C858.045044,454.291351 858.036011,650.440491 858.031006,846.589600 
	C858.030762,856.327881 858.040161,856.302124 848.219666,856.302124 
	C627.572571,856.301941 406.925537,856.311646 186.278458,856.302795 
	C174.328705,856.302307 175.712784,857.465332 175.700333,845.482239 
	C175.635880,783.488159 175.646637,721.494019 175.630951,658.999878 
M196.304001,558.500000 
	C196.298065,642.993286 196.292404,727.486511 196.285568,811.979797 
	C196.285049,818.479248 196.362442,824.980469 196.233185,831.477478 
	C196.173355,834.484314 197.360397,835.682190 200.352570,835.623230 
	C205.683090,835.518127 211.017670,835.638367 216.350510,835.629883 
	C420.162811,835.305237 623.976318,836.344360 827.787842,835.102173 
	C836.921997,835.046509 836.919678,835.090515 836.921265,825.712769 
	C836.955994,617.895264 836.991455,410.077728 837.026611,202.260208 
	C837.027100,199.142532 837.026611,196.024857 837.026611,193.253784 
	C834.949707,191.904724 833.238708,192.267044 831.613586,192.266922 
	C621.963013,192.251785 412.312408,192.270432 202.661865,192.164551 
	C197.756104,192.162048 196.102737,193.302933 196.110413,198.527054 
	C196.286011,318.184540 196.278198,437.842285 196.304001,558.500000 
z"/>
<path fill="#000000" opacity="1.000000" stroke="none" 
	d="
M538.630127,336.397766 
	C518.190979,334.248657 498.306763,334.360474 478.618195,339.106384 
	C430.325134,350.747345 398.639496,380.907410 381.138153,426.719757 
	C369.170990,458.045685 367.262085,490.573853 370.119720,523.638306 
	C372.737152,553.922974 381.538391,582.085938 399.176178,607.037781 
	C420.058716,636.579956 448.196838,655.648682 483.734192,663.005554 
	C516.209595,669.728516 548.288513,668.515320 579.456848,656.088074 
	C583.274902,654.565796 587.133484,653.031677 590.786072,649.667542 
	C570.869690,627.417664 548.703003,607.605042 528.419678,585.279541 
	C532.350220,583.307922 535.550781,583.969299 538.600220,584.128662 
	C557.087158,585.094177 575.577820,584.619507 594.066406,584.386292 
	C596.373901,584.357178 598.300354,584.555786 599.913696,586.370422 
	C623.294128,612.667725 649.050293,636.654053 673.454102,661.955017 
	C704.453369,694.093994 735.281494,726.398132 766.169189,758.644531 
	C767.158997,759.677795 768.611877,760.500549 768.338501,762.372681 
	C767.235474,763.815857 765.621826,763.285583 764.216797,763.287598 
	C743.885254,763.316467 723.552979,763.221924 703.222534,763.372070 
	C699.652222,763.398499 697.316040,761.935059 695.022888,759.533752 
	C674.884460,738.445557 654.603821,717.492126 634.591919,696.284973 
	C631.106079,692.590881 628.384033,692.280396 623.924377,694.540649 
	C594.771423,709.315796 563.629944,716.312744 531.077026,717.314941 
	C502.127899,718.206177 473.471405,716.209229 445.650299,707.441711 
	C392.659973,690.742188 352.821167,658.306519 327.997620,608.232910 
	C315.732330,583.491699 309.469849,557.083313 306.405701,529.711243 
	C303.322357,502.168060 304.261688,474.870880 309.688293,447.753754 
	C316.185364,415.287445 328.751953,385.498535 349.153320,359.137756 
	C370.116272,332.051422 396.973328,312.952179 428.501678,300.344391 
	C462.116089,286.902374 497.117706,282.226746 533.257446,284.431488 
	C560.494019,286.093079 586.674500,291.739868 611.616394,302.705811 
	C650.945190,319.997101 681.116028,347.356873 701.349854,385.432831 
	C722.225952,424.717468 729.671814,466.916962 728.094849,510.930176 
	C726.778015,547.680969 718.965027,582.845581 700.640808,615.170288 
	C697.139099,621.347534 693.338745,627.335876 688.531311,633.398438 
	C683.056580,627.884033 677.991516,622.882996 673.040161,617.771790 
	C665.388123,609.872681 657.940979,601.770081 650.138611,594.024170 
	C647.346130,591.251953 646.809509,588.967590 648.386841,585.290771 
	C656.581116,566.190308 661.589600,546.199768 663.590759,525.537537 
	C665.899597,501.698639 664.756531,477.989044 659.839050,454.493683 
	C654.042114,426.796417 643.371094,401.362823 624.406860,380.023407 
	C602.703308,355.601562 575.033630,342.157288 543.014282,337.136261 
	C541.697083,336.929749 540.386902,336.677917 538.630127,336.397766 
z"/>
</svg>